<svg id="arrow" data-name="arrow" xmlns="http://www.w3.org/2000/svg" viewBox="0 0 156 20.15"><path d="M133.91,87.32l8.63-6.19c-1.81-.15-2.81-.3-3.81-.3H22c-4.83,0-6.94,3.93-9.79,6.79-.9.91-1.92,1.71-2.88,2.55l-1-.94,6.89-8.27c-5.71.94-7.26,7-11.71,9L2.67,89l8.16-9L2.52,71.09,3.46,70l10.93,9.78.8-.87L8.37,71.16l.55-.88a14.23,14.23,0,0,1,2.54,1.3,12.22,12.22,0,0,1,1.7,2.06c3.18,3.93,6.92,5.77,12.35,5.74,37.57-.26,75.14-.13,112.71-.13h3.6l.25-.61-8.75-6.32.25-.51,25,8.23-24.27,8Z" transform="translate(-2.52 -70.01)"/></svg>