<?xml version="1.0" encoding="utf-8"?>
<!-- Generator: Adobe Illustrator 25.3.0, SVG Export Plug-In . SVG Version: 6.00 Build 0)  -->
<svg version="1.1" id="Capa_1" xmlns="http://www.w3.org/2000/svg" xmlns:xlink="http://www.w3.org/1999/xlink" x="0px" y="0px"
	 viewBox="0 0 300 300" style="enable-background:new 0 0 300 300;" xml:space="preserve">
<style type="text/css">
	.st0{enable-background:new    ;}
	.st1{fill:#CC000B;}
</style>
<g class="st0">
	<path class="st1" d="M258.3,18.9h6.4c-0.4,8.6-1.7,15.1-4,19.6c-3.1,6-7.8,10.7-13.9,14.2S233.9,58,226.5,58
		c-7.9,0-17.3-2.1-28.3-6.4v38.8h45.9l-8.4,21.8h-37.4v69.6c0,13.8-1,23.8-2.9,30.1c-1.9,6.3-5.6,12.3-11.2,18.1
		c-5.6,5.8-12.5,10.6-20.9,14.5c-12,5.7-21.7,9.7-29,12.2l-61.3,20.6c-19.3-7.2-30.6-10.8-33.7-10.8c-2.7,0-5.2,1-7.3,2.9
		c-2.1,1.9-3.7,5.1-4.5,9.4l-6.2-1.5c0-6.8,0.8-12.1,2.5-16c2.6-6.3,6.3-11,11.1-14.3c4.8-3.2,9.9-4.9,15.4-4.9
		c7.7,0,17.7,2.6,29.9,7.9c8.6,3.8,13.8,6,15.7,6.6s3.7,0.9,5.5,0.9c3,0,5.8-1.2,8.3-3.7c2.5-2.5,4.2-6.3,4.9-11.4s1.1-15.8,1.1-32
		v-98.1l-9.1-0.1c-15.1,0-26.2,1.7-33.5,5.2c-7.3,3.5-13.6,9.3-18.8,17.5l-5.6-2.4c3.9-12.9,9-22.1,15.4-27.8
		c10.7-9.6,25.6-14.3,44.7-14.3c1.6,0,3.9,0.1,7,0.1V59.2l10.1,0.4c10.9,0,21.7-2.2,32.4-6.7c10.7-4.4,19.6-9.7,26.8-15.9
		c4.8-4.2,9.9-10.3,15.2-18.2c16,10.3,29.1,15.4,39.4,15.4c4.5,0,8.3-1.2,11.4-3.6C254.1,28.3,256.5,24.3,258.3,18.9z M168.2,57.5
		c-6.5,3.5-14,6.2-22.4,8.1v118c0,4.1-0.4,11.8-1.2,23.1c-0.5,6.6-1.3,11.7-2.3,15.1c-1.7,5.1-4.1,9.9-7.3,14.4s-8.7,10.4-16.3,17.6
		c12.8-4.7,22.9-10.5,30.5-17.4c7.6-6.9,12.7-14.3,15.2-22.3c2.5-8,3.8-19.9,3.8-35.8L168.2,57.5L168.2,57.5z"/>
</g>
</svg>
