<?xml version="1.0" encoding="utf-8"?>
<!-- Generator: Adobe Illustrator 25.3.0, SVG Export Plug-In . SVG Version: 6.00 Build 0)  -->
<svg version="1.1" id="Capa_1" xmlns="http://www.w3.org/2000/svg" xmlns:xlink="http://www.w3.org/1999/xlink" x="0px" y="0px"
	 viewBox="0 0 300 300" style="enable-background:new 0 0 300 300;" xml:space="preserve">
<style type="text/css">
	.st0{enable-background:new    ;}
	.st1{fill:none;stroke:#CC000B;stroke-width:2;stroke-miterlimit:10;}
</style>
<g class="st0">
	<path class="st1" d="M260.8,18.9h0.2c2.1,0,3.7,1.8,3.5,3.9c-0.6,6.7-1.8,12-3.7,15.8c-3.1,6-7.8,10.7-13.9,14.2S233.9,58,226.5,58
		c-6.8,0-14.6-1.6-23.6-4.7c-2.3-0.8-4.7,0.9-4.7,3.3v30.2c0,2,1.6,3.5,3.5,3.5h37.2c2.5,0,4.2,2.5,3.3,4.8l-5.7,14.7
		c-0.5,1.4-1.8,2.3-3.3,2.3h-31.5c-2,0-3.5,1.6-3.5,3.5v66.1c0,13.8-1,23.8-2.9,30.1c-1.9,6.3-5.6,12.3-11.2,18.1
		c-5.6,5.8-12.5,10.6-20.9,14.5c-12,5.7-21.7,9.7-29,12.2l-60.2,20.2c-0.8,0.3-1.6,0.2-2.4,0c-18.6-6.9-29.4-10.4-32.5-10.4
		c-2.7,0-5.2,1-7.3,2.9c-1.6,1.4-2.8,3.5-3.7,6.3c-0.6,1.7-2.4,2.7-4.2,2.3l-0.1,0c-1.6-0.4-2.8-1.9-2.7-3.6c0.2-5.4,1-9.8,2.4-13.1
		c2.6-6.3,6.3-11,11.1-14.3c4.8-3.2,9.9-4.9,15.4-4.9c7.7,0,17.7,2.6,29.9,7.9c8.6,3.8,13.8,6,15.7,6.6s3.7,0.9,5.5,0.9
		c3,0,5.8-1.2,8.3-3.7c2.5-2.5,4.2-6.3,4.9-11.4s1.1-15.8,1.1-32v-94.7c0-1.9-1.5-3.5-3.5-3.5l-5.6-0.1c-15.1,0-26.2,1.7-33.5,5.2
		c-6.6,3.1-12.3,8.2-17.3,15.2c-1,1.4-2.7,1.9-4.3,1.2h0c-1.7-0.7-2.5-2.6-2-4.4c3.8-11.3,8.6-19.5,14.4-24.7
		c10.7-9.6,25.6-14.3,44.7-14.3c0.9,0,2,0,3.4,0c2,0,3.6-1.6,3.6-3.5V62.9c0-2,1.7-3.6,3.7-3.5l6.4,0.3c10.9,0,21.7-2.2,32.4-6.7
		c10.7-4.4,19.6-9.7,26.8-15.9c4.2-3.7,8.7-8.8,13.3-15.4c1.1-1.5,3.2-1.9,4.7-1c14.7,9.1,26.9,13.6,36.5,13.6
		c4.5,0,8.3-1.2,11.4-3.6c2.7-2,4.8-5.2,6.5-9.5C258,19.8,259.3,18.9,260.8,18.9z M168.2,57.5c-5.8,3.1-12.4,5.6-19.8,7.4
		c-1.6,0.4-2.7,1.8-2.7,3.4v115.2c0,4.1-0.4,11.8-1.2,23.1c-0.5,6.6-1.3,11.7-2.3,15.1c-1.7,5.1-4.1,9.9-7.3,14.4
		c-0.9,1.3-2,2.7-3.4,4.3c-2.6,3,1,7.3,4.5,5.4c5-2.9,9.4-6,13.1-9.4c7.6-6.9,12.7-14.3,15.2-22.3c2.5-8,3.8-19.9,3.8-35.8
		L168.2,57.5L168.2,57.5z"/>
</g>
</svg>
