<?xml version="1.0" encoding="utf-8"?>
<!-- Generator: Adobe Illustrator 16.0.3, SVG Export Plug-In . SVG Version: 6.00 Build 0)  -->
<!DOCTYPE svg PUBLIC "-//W3C//DTD SVG 1.1//EN" "http://www.w3.org/Graphics/SVG/1.1/DTD/svg11.dtd">
<svg version="1.1" id="Capa_1" xmlns="http://www.w3.org/2000/svg" xmlns:xlink="http://www.w3.org/1999/xlink" x="0px" y="0px"
	 width="400px" height="1080px" viewBox="0 0 400 1080" enable-background="new 0 0 400 1080" xml:space="preserve">
<path fill="#1A1A1A" d="M271.297,196.459c0,0,9.649,5.426-11.011-16.042V88.071c0,0,0-22.297-7.351-23.104
	c-7.519-0.834-41.19-28.424-113.865,4.574c0,0-10.477,54.256-9.59,61.691c0.781,7.408-21.785-53.066-21.785-53.066
	s0-76.739,86.596-71.757c0,0,41.321,0,50.345,14.813l15.038,10.919c0,0,52.057,8.806,53.761,46.781c0,0,0.046,59.415-4.807,89.938
	c-5.012,30.488-22.328-11.696-19.828,29.961L271.297,196.459z"/>
<path fill="#C9A189" d="M245.856,289.226c0,1.43-1.2,2.571-2.566,2.571h-82.216c-1.428,0-2.572-1.142-2.572-2.571V242.02
	c0-1.429,1.144-2.57,2.572-2.57h82.216c1.366,0,2.566,1.142,2.566,2.57v23.604V289.226z"/>
<path fill="#C9A189" d="M128.069,103.248l-2.48,71.167l8.937,64.56l4.545,4.894l42.42,18.188c0,0,5.928,2.867,25.05-1.063
	c13.808-2.917,41.598-11.926,51.97-14.573c1.697-0.405,8.572-6.972,8.572-6.972s5.76-5.605,14.255-16.159
	c5.75-7.214,17.019-2.745,23.564-10.662c13.458-16.341,9.327-44.249-0.8-47.187c0,0-19.625-3.728-16.334,15.856l-10.701,7.37
	l-2.553-21.663l2.553,21.663l-2.553-21.663l-7.498-11.411l-4.354-23.218l-0.936-39.853c0,0-1.246-17.713-3.5-23.125
	c-1.039-2.49-6.57-8.658-6.57-8.658s-60.895-22.691-114.666,0.25c-0.886,0.366-7.979,13.914-7.989,14.808
	C128.488,90.704,128.069,103.248,128.069,103.248z"/>
<path d="M200.543,108.802c2.238-3.415,28.85-7.034,28.85-7.034l2.226,0.202c0,0,25.332,9.558,25.313,11.802
	c-0.163,0.546-3.048,0.276-3.675,0.374c-5.831,0.381-16.86-1.643-22.601-1.079c-0.079,0.081-2.033,0.705-2.033,0.705l-27.017,7.53
	c0,0-0.863,0.4-1.063,0.245c-2.248-1.746-1.02-11.129-1.02-11.129S200.312,109.042,200.543,108.802z"/>
<path fill="#FFFFFF" d="M172.15,139.124c0,9.146-7.448,16.538-16.541,16.538c-9.093,0-16.54-7.393-16.54-16.538
	c0-9.121,7.446-16.459,16.54-16.459C164.702,122.665,172.15,130.002,172.15,139.124z"/>
<path fill="#FFFFFF" d="M241.212,139.124c0,9.146-7.338,16.538-16.386,16.538c-9.193,0-16.533-7.393-16.533-16.538
	c0-9.121,7.34-16.459,16.533-16.459C233.874,122.665,241.212,130.002,241.212,139.124z"/>
<path d="M163.853,139.124c0,5.907-3.722,10.774-8.243,10.774c-4.517,0-8.3-4.867-8.3-10.774c0-5.91,3.783-10.695,8.3-10.695
	C160.13,128.429,163.853,133.213,163.853,139.124z"/>
<path d="M233.075,139.124c0,5.907-3.723,10.774-8.249,10.774c-4.675,0-8.293-4.867-8.293-10.774c0-5.91,3.618-10.695,8.293-10.695
	C229.353,128.429,233.075,133.213,233.075,139.124z"/>
<path d="M148.903,207.713c0,0,69.69,4.298,82.472,0c0,0-23.037,18.61-41.152,18.61C171.942,226.323,148.903,207.713,148.903,207.713
	z"/>
<path fill="none" stroke="#000000" stroke-miterlimit="10" d="M185.941,139.124c0,0-13.791,37.395-13.791,39.372
	c0,4.409,7.219,13.168,13.791,10.942"/>
<path fill="#FFFFFF" d="M162.586,208.478c0,0,0.44,1.655,3.822,3.257c0.182,0.072,0.014-0.149,0.204-0.06
	c0.125,0.055,0.036,0.114,0.167,0.195c1.018,0.408,2.659,0.873,4.121,1.261c0.126,0.018,0.25-0.018,0.314,0
	c0.199,0.036,0.24,0.191,0.385,0.227c1.4,0.347,3.137,0.719,4.972,0.989c0.229,0.063,0.147-0.034,0.442,0
	c0.119,0.016,0.356,0.108,0.476,0.124c1.792,0.234,4.076,0.525,6.291,0.688c0.251,0.013,0.187-0.12,0.385-0.106
	c0.176,0.008,0.178,0.156,0.299,0.163c1.77,0.122,4.083,0.195,6.148,0.232c0.342,0.005,0.007-0.079,0.354-0.074
	c0.307,0.004-0.015,0.102,0.298,0.114c1.659,0.032,4.309-0.013,5.797-0.045c0.316-0.007,0.17-0.07,0.472-0.079
	c0.251-0.007,0.03,0.082,0.268,0.071c2.019-0.069,5.27-0.364,6.874-0.532c0.376-0.034,0-0.019,0.361-0.055
	c0.334-0.033,0.069,0.036,0.394,0c1.348-0.179,3.759-0.505,4.838-0.722c0.427-0.074,0.132-0.202,0.57-0.228
	c0.139-0.011,0.008,0.068,0.268,0c1.245-0.333,3.471-0.915,4.31-1.269c0.306-0.13,0.127-0.149,0.397-0.251
	c0.287-0.135,0.104,0.043,0.366-0.079c3.033-1.387,3.704-3.034,3.704-3.034S167.938,208.9,162.586,208.478z"/>
<path fill="#FF0000" d="M172.948,222.167c0,0,15.971-7.81,33.592,0.366C206.23,222.773,190.967,231.261,172.948,222.167z"/>
<path d="M195.324,213.015c0,0.483-0.303,0.783-0.812,0.783h-1.5c-0.342,0-0.767-0.3-0.767-0.783v-1.497
	c0-0.398,0.424-0.762,0.767-0.762h1.5c0.509,0,0.812,0.364,0.812,0.762V213.015z"/>
<path d="M188.936,213.015c0,0.483-0.42,0.783-0.763,0.783h-1.499c-0.449,0-0.767-0.3-0.767-0.783v-1.497
	c0-0.398,0.317-0.762,0.767-0.762h1.499c0.343,0,0.763,0.364,0.763,0.762V213.015z"/>
<path d="M203.062,212.638c0,0.475-0.31,0.761-0.822,0.761h-1.5c-0.449,0-0.767-0.287-0.767-0.761v-1.497
	c0-0.399,0.318-0.766,0.767-0.766h1.5c0.513,0,0.822,0.367,0.822,0.766V212.638z"/>
<path d="M181.727,212.638c0,0.475-0.309,0.761-0.765,0.761h-1.492c-0.516,0-0.829-0.287-0.829-0.761v-1.497
	c0-0.399,0.313-0.766,0.829-0.766h1.492c0.456,0,0.765,0.367,0.765,0.766V212.638z"/>
<path d="M208.509,212.268c0,0.48-0.427,0.778-0.765,0.778h-0.439c-0.452,0-0.765-0.297-0.765-0.778v-1.497
	c0-0.399,0.313-0.766,0.765-0.766h0.439c0.338,0,0.765,0.367,0.765,0.766V212.268z"/>
<path d="M174.914,211.867c0,0.4-0.313,0.762-0.763,0.762h-0.437c-0.346,0-0.767-0.361-0.767-0.762v-1.496
	c0-0.484,0.421-0.813,0.767-0.813h0.437c0.451,0,0.763,0.329,0.763,0.813V211.867z"/>
<path d="M214.322,211.136c0,0.451-0.304,0.767-0.763,0.767l0,0c-0.447,0-0.765-0.316-0.765-0.767v-0.764
	c0-0.482,0.317-0.798,0.765-0.798l0,0c0.459,0,0.763,0.316,0.763,0.798V211.136z"/>
<path d="M169.63,210.751c0,0.4-0.417,0.765-0.76,0.765l0,0c-0.457,0-0.931-0.365-0.931-0.765v-0.763
	c0-0.483,0.474-0.847,0.931-0.847l0,0c0.343,0,0.76,0.364,0.76,0.847V210.751z"/>
<path d="M218.594,210.528c0,0.229-0.232,0.386-0.487,0.386l0,0c-0.092,0-0.271-0.158-0.271-0.386v-0.792
	c0-0.228,0.179-0.383,0.271-0.383l0,0c0.255,0,0.487,0.155,0.487,0.383V210.528z"/>
<path d="M164.907,209.988c0,0.173-0.185,0.383-0.339,0.383l0,0c-0.189,0-0.427-0.209-0.427-0.383v-0.847
	c0-0.175,0.238-0.383,0.427-0.383l0,0c0.154,0,0.339,0.208,0.339,0.383V209.988z"/>
<polyline fill="none" stroke="#000000" stroke-width="0.2" stroke-miterlimit="10" points="164.577,209.559 168.87,210.371 
	173.963,211.117 180.215,211.888 187.423,212.631 193.756,212.631 200.776,211.888 207.551,211.516 213.56,210.755 218.106,210.123 
	"/>
<path d="M181.484,108.88c-1.847-3.357-25.153-6.882-25.153-6.882l-1.946,0.148c0,0-22.096,9.384-22.082,11.523
	c0.001,0.624,2.563,0.356,3.049,0.372c5.2,0.378,14.776-1.596,19.782-0.988c0.181,0.009,1.76,0.616,1.76,0.616l23.594,7.376
	c0,0,0.915,0.426,0.996,0.273c1.969-1.762,0.967-10.889,0.967-10.889S181.707,109.149,181.484,108.88z"/>
<path fill="#CCCCCC" d="M156.624,133.206c0,0.53-0.514,1.015-1.014,1.015c-0.547,0-1.014-0.485-1.014-1.015
	c0-0.582,0.467-0.984,1.014-0.984C156.109,132.222,156.624,132.625,156.624,133.206z"/>
<path fill="#CCCCCC" d="M225.842,133.206c0,0.53-0.451,1.015-0.954,1.015c-0.554,0-1.015-0.485-1.015-1.015
	c0-0.582,0.461-0.984,1.015-0.984C225.391,132.222,225.842,132.625,225.842,133.206z"/>
<g>
	<g>
		<path d="M149.082,207.964c8.081,12.462,21.871,22.577,36.825,24.043c0.064,0.006,0.063-0.094,0-0.1
			c-14.908-1.462-28.678-11.563-36.739-23.994C149.133,207.859,149.047,207.909,149.082,207.964L149.082,207.964z"/>
	</g>
</g>
<g>
	<g>
		<path d="M209.562,227.533c5.117-3.221,10.754-6.346,15.199-10.475c0.048-0.044-0.023-0.114-0.07-0.07
			c-4.434,4.117-10.074,7.246-15.18,10.459C209.456,227.481,209.507,227.568,209.562,227.533L209.562,227.533z"/>
	</g>
</g>
<g>
	<g>
		<path d="M190.992,215.531c0-2.175,0-4.351,0-6.526c0-0.032-0.05-0.032-0.05,0c0,2.175,0,4.351,0,6.526
			C190.942,215.563,190.992,215.563,190.992,215.531L190.992,215.531z"/>
	</g>
</g>
<g>
	<g>
		<path d="M197.559,215.531c0-2.15,0-4.301,0-6.451c0-0.032-0.05-0.032-0.05,0c0,2.15,0,4.301,0,6.451
			C197.509,215.563,197.559,215.563,197.559,215.531L197.559,215.531z"/>
	</g>
</g>
<g>
	<g>
		<path d="M184.19,215.375c0-2.158,0-4.316,0-6.474c0-0.032-0.05-0.032-0.05,0c0,2.158,0,4.316,0,6.474
			C184.14,215.407,184.19,215.407,184.19,215.375L184.19,215.375z"/>
	</g>
</g>
<g>
	<g>
		<path d="M177.039,214.347c0-1.848,0-3.695,0-5.542c0-0.032-0.05-0.032-0.05,0c0,1.848,0,3.695,0,5.542
			C176.989,214.379,177.039,214.379,177.039,214.347L177.039,214.347z"/>
	</g>
</g>
<g>
	<g>
		<path d="M171.24,213.131c0-1.458,0-2.915,0-4.373c0-0.032-0.05-0.032-0.05,0c0,1.458,0,2.915,0,4.373
			C171.19,213.164,171.24,213.164,171.24,213.131L171.24,213.131z"/>
	</g>
</g>
<g>
	<g>
		<path d="M166.637,211.675c0-1.018,0-2.035,0-3.052c0-0.032-0.05-0.032-0.05,0c0,1.018,0,2.035,0,3.052
			C166.587,211.708,166.637,211.708,166.637,211.675L166.637,211.675z"/>
	</g>
</g>
<g>
	<g>
		<path d="M205.063,214.849c0-1.908,0-3.816,0-5.725c0-0.032-0.051-0.032-0.051,0c0,1.908,0,3.816,0,5.725
			C205.012,214.881,205.063,214.881,205.063,214.849L205.063,214.849z"/>
	</g>
</g>
<g>
	<g>
		<path d="M210.733,213.955c0-1.594,0-3.189,0-4.783c0-0.032-0.051-0.032-0.051,0c0,1.594,0,3.189,0,4.783
			C210.683,213.987,210.733,213.987,210.733,213.955L210.733,213.955z"/>
	</g>
</g>
<g>
	<g>
		<path d="M215.839,212.481c0-1.073,0-2.147,0-3.22c0-0.032-0.051-0.032-0.051,0c0,1.073,0,2.147,0,3.22
			C215.788,212.513,215.839,212.513,215.839,212.481L215.839,212.481z"/>
	</g>
</g>
<g>
	<g>
		<path d="M158.477,252.255c3.842,1.648,7.693,3.276,11.546,4.898c6.291,2.647,12.632,6.396,19.604,6.17
			c14.003-0.452,28.364-3.48,41.762-7.347c0.062-0.018,0.035-0.114-0.027-0.097c-13.247,3.824-26.611,5.853-40.292,7.239
			c-7.092,0.719-13.251-2.807-19.617-5.473c-4.315-1.808-8.624-3.633-12.924-5.477C158.469,252.144,158.417,252.229,158.477,252.255
			L158.477,252.255z"/>
	</g>
</g>
<polyline fill="#C9A189" points="271.838,277.254 245.856,272.278 158.502,269.883 139.07,276.321 142.328,310.542 189.714,322.082 
	259.639,305.82 271.838,277.254 272.928,277.457 "/>
<g>
	<g>
		<path d="M158.552,279.929c0-3.349,0-6.697,0-10.046c0-0.064-0.1-0.064-0.1,0c0,3.349,0,6.697,0,10.046
			C158.452,279.993,158.552,279.993,158.552,279.929L158.552,279.929z"/>
	</g>
</g>
<g>
	<g>
		<path d="M245.906,279.929c0-9.432,0-18.864,0-28.295c0-0.064-0.1-0.064-0.1,0c0,9.432,0,18.864,0,28.295
			C245.807,279.993,245.906,279.993,245.906,279.929L245.906,279.929z"/>
	</g>
</g>
<g>
	<g>
		<path d="M214.593,290.586c7.632-0.923,15.263-1.847,22.895-2.77c0.063-0.007,0.063-0.107,0-0.1
			c-7.632,0.923-15.263,1.847-22.895,2.77C214.529,290.494,214.529,290.594,214.593,290.586L214.593,290.586z"/>
	</g>
</g>
<g>
	<g>
		<path d="M207.802,295.411c1.428-1.215,2.855-2.43,4.283-3.646c0.05-0.042-0.021-0.112-0.07-0.07
			c-1.428,1.215-2.855,2.43-4.283,3.646C207.682,295.382,207.753,295.452,207.802,295.411L207.802,295.411z"/>
	</g>
</g>
<g>
	<g>
		<path d="M169.667,287.288c4.053,0.645,8.106,1.29,12.16,1.935c0.063,0.01,0.09-0.086,0.026-0.097
			c-4.053-0.645-8.106-1.29-12.16-1.935C169.63,287.181,169.603,287.277,169.667,287.288L169.667,287.288z"/>
	</g>
</g>
<path fill="#C9A189" d="M22.15,397.095c0,0-7.525,66.779-4.321,101.398l-0.794,12.392c0,0,10.01,65.156,11.077,93.269L61.473,604
	c0,0,3.42-80.665,1.219-90.551l2.233-12.825c0,0,18.426-89.361,10.766-96.394C68.035,397.198,22.15,397.095,22.15,397.095z"/>
<path fill="#C9A189" d="M25.386,606.414l-5.874,13.822c0,0-2.017,14.708-2.477,18.065c-0.461,3.359-3.398,15.525-3.398,15.525
	s-1.98,13.657-1.68,14.688c0.357,1.22,3.86,2.521,5.078,0c1.216-2.516,4.569-14.265,4.569-14.265l5.88-14.582l-2.099,17.939
	c0,0-1.879,13.178-1.678,14.265c0.131,0.713,3.954,4.231,6.451,0.943c0.671-0.883,2.885-14.368,2.885-14.368l4.615-17.729
	c0,0,0.21,15.103,0.734,20.242c0.369,3.617-0.121,12.951,0,14.166c0,0,3.147,4.407,6.715,0.52
	c1.277-1.388,0.837-14.369,0.837-14.369l1.363-19.312l3.463,14.596c0,0,1.659,14.176,2.308,15.101
	c0.358,0.514,4.996,3.351,5.874-0.732c0.838-3.892-0.838-15.629-0.838-15.629s-1.757-10.144-1.469-13.532
	c0.17-2.027,2.631-9.271,7.972-1.645c1.329,1.9,3.568,7.41,3.568,7.41l2.097,7.343c0,0,4.825,3.985,5.455-0.21
	c0.848-5.641-0.838-8.809-0.838-8.809s-1.469-8.951-5.245-12.59c0,0-1.053-5.113-2.729-10.072c-2.352-6.967-1.58-6.987-3.356-9.233
	c-1.2-1.513-2.099-11.223-2.099-11.223l-33.36,0.154L25.386,606.414z"/>
<path fill="#C9A189" d="M378.271,398.26c0,0,7.521,66.78,4.319,101.397l0.796,12.395c0,0-10.017,65.155-11.084,93.269l-33.359-0.155
	c0,0-3.419-80.664-1.218-90.549l-2.229-12.829c0,0-18.429-89.358-10.769-96.39"/>
<path fill="#C9A189" d="M375.034,607.576l5.872,13.826c0,0,2.016,14.708,2.479,18.066c0.455,3.358,3.396,15.523,3.396,15.523
	s1.98,13.658,1.681,14.688c-0.359,1.219-3.86,2.521-5.076,0c-1.219-2.519-4.572-14.265-4.572-14.265l-5.878-14.582l2.099,17.938
	c0,0,1.878,13.18,1.676,14.267c-0.134,0.713-3.956,4.232-6.454,0.943c-0.669-0.884-2.883-14.368-2.883-14.368l-4.616-17.729
	c0,0-0.206,15.101-0.734,20.241c-0.367,3.618,0.121,12.95,0,14.166c0,0-3.147,4.402-6.712,0.52
	c-1.278-1.392-0.84-14.368-0.84-14.368l-1.359-19.316l-3.467,14.595c0,0-1.655,14.181-2.311,15.106
	c-0.354,0.508-4.994,3.35-5.87-0.732c-0.837-3.896,0.837-15.63,0.837-15.63s1.752-10.146,1.473-13.531
	c-0.173-2.03-2.635-9.274-7.978-1.646c-1.325,1.896-3.563,7.409-3.563,7.409l-2.098,7.344c0,0-4.832,3.984-5.458-0.213
	c-0.844-5.638,0.84-8.807,0.84-8.807s1.471-8.951,5.244-12.59c0,0,1.053-5.113,2.728-10.075c2.351-6.964,1.581-6.983,3.354-9.229
	c1.203-1.513,2.099-11.224,2.099-11.224l33.359,0.156L375.034,607.576z"/>
<path fill="none" stroke="#000000" stroke-miterlimit="10" d="M299.078,211.902c0,0,12.912-9.465,9.786-25.198
	c-1.054-5.302,0.289-17.59-9.154-16.541"/>
<circle cx="178.959" cy="194.777" r="1.258"/>
<g>
	<g>
		<path fill="#1A1A1A" d="M149.583,272.789c0.385,1.83,2.879,3.794,4.076,5.04c3.58,3.724,7.549,7.068,11.648,10.202
			c10.661,8.151,23.337,14.58,36.925,15.314c20.898,1.13,42.478-14.113,56.631-28.279c0.456-0.457-0.251-1.164-0.707-0.707
			c-13.775,13.787-33.261,27.078-53.213,27.998c-13.468,0.621-26.472-6.148-37.141-13.722c-4.368-3.101-8.46-6.607-12.286-10.354
			c-1.353-1.325-4.553-3.782-4.969-5.758C150.414,271.892,149.45,272.16,149.583,272.789L149.583,272.789z"/>
	</g>
</g>
<path d="M271.838,277.254c0,0-59.838,44.105-131.6-1.32c-2.008-1.264-81.474,15.693-86.737,19.441
	c-11.68,8.309-23.499,1.934-31.89,109.621c-0.653,8.367,56.226,12.589,56.226,12.589s17.989-39.655,18.561-50.092
	c0.553-10.11,1.385,244.463,1.385,244.463h204.256V358.916c0,0,16.373,48.47,21.855,54.743c3.827,4.386,55.23-12.019,55.23-12.019
	c0.537-94.204-16.787-94.833-19.271-100.814C355.144,289.458,271.838,277.254,271.838,277.254z"/>
<g>
	<g>
		<path fill="#1A1A1A" d="M104.588,357.794c-0.149,2.332-3.32,4.392-4.995,5.639c-1.25,0.931-2.554,1.807-3.893,2.606
			c-0.277,0.165-0.025,0.598,0.252,0.432c1.689-1.009,3.31-2.14,4.864-3.344c1.599-1.239,4.129-3.099,4.272-5.333
			C105.108,357.472,104.608,357.474,104.588,357.794L104.588,357.794z"/>
	</g>
</g>
<g>
	<g>
		<path fill="#1A1A1A" d="M99.273,356.752c-3.294,0.101-4.895,2.521-5.243,5.582c-0.028,0.25,0.052,4.969,0.939,4.082
			c0.228-0.228-0.125-0.582-0.354-0.354c0.25-0.25-0.042-1.025-0.097-1.567c-0.089-0.891-0.049-1.796,0.077-2.681
			c0.371-2.589,1.957-4.479,4.677-4.562C99.595,357.242,99.596,356.742,99.273,356.752L99.273,356.752z"/>
	</g>
</g>
<g>
	<g>
		<path fill="#1A1A1A" d="M97.805,361.539c-0.785,1.665-1.849,3.286-3.213,4.54c-0.238,0.219,0.117,0.571,0.354,0.354
			c1.391-1.278,2.491-2.944,3.292-4.641C98.373,361.501,97.942,361.247,97.805,361.539L97.805,361.539z"/>
	</g>
</g>
<g>
	<g>
		<path fill="#1A1A1A" d="M296.751,354.799c0.096,2.57,3.031,3.894,5.221,4.357c0.314,0.066,0.448-0.416,0.133-0.482
			c-1.944-0.412-4.768-1.563-4.854-3.875C297.239,354.478,296.739,354.477,296.751,354.799L296.751,354.799z"/>
	</g>
</g>
<g>
	<g>
		<path fill="#1A1A1A" d="M298.804,352.894c1.835-0.769,2.797,4.897,2.993,6.088c0.053,0.317,0.534,0.183,0.482-0.133
			c-0.231-1.398-1.192-7.449-3.608-6.438C298.378,352.534,298.507,353.019,298.804,352.894L298.804,352.894z"/>
	</g>
</g>
<g>
	<g>
		<path fill="#1A1A1A" d="M304.649,347.789c-0.11,3.717-1.622,7.582-2.853,11.061c-0.107,0.305,0.376,0.435,0.482,0.133
			c1.248-3.528,2.758-7.419,2.87-11.193C305.159,347.466,304.659,347.467,304.649,347.789L304.649,347.789z"/>
	</g>
</g>
<g>
	<g>
		<path fill="#1A1A1A" d="M298.796,452.054c-0.305,1.491-10.598,2.706-11.92,2.952c-7.346,1.366-14.742,2.466-22.136,3.542
			c-10.46,1.521-20.939,2.924-31.431,4.213c-0.947,0.116-0.959,1.618,0,1.5c11.61-1.427,23.206-2.994,34.779-4.699
			c7.651-1.127,15.309-2.302,22.894-3.825c1.66-0.333,8.778-0.932,9.261-3.285C300.437,451.509,298.99,451.107,298.796,452.054
			L298.796,452.054z"/>
	</g>
</g>
<g>
	<g>
		<path fill="#1A1A1A" d="M269.99,475.1c-2.272-2.352-6.568-1.917-9.496-1.711c-5.972,0.42-11.899,1.814-17.698,3.227
			c-9.166,2.233-18.253,4.947-27.182,7.996c-0.91,0.311-0.52,1.76,0.398,1.446c7.327-2.502,14.763-4.717,22.238-6.726
			c5.742-1.543,11.542-2.913,17.415-3.859c3.32-0.535,10.516-2.156,13.264,0.688C269.603,476.857,270.662,475.795,269.99,475.1
			L269.99,475.1z"/>
	</g>
</g>
<g>
	<g>
		<path fill="#1A1A1A" d="M289.285,486.849c-0.416,2.339-9.061,3.253-10.863,3.594c-3.153,0.596-6.337,1.078-9.522,1.463
			c-0.948,0.115-0.959,1.616,0,1.5c3.882-0.469,7.75-1.084,11.587-1.838c2.265-0.446,9.688-1.189,10.246-4.321
			C290.9,486.302,289.455,485.897,289.285,486.849L289.285,486.849z"/>
	</g>
</g>
<g>
	<g>
		<path fill="#1A1A1A" d="M286.112,502.346c-3.698-4.871-12.608-1.746-17.25-0.33c-5.787,1.766-11.477,4.147-16.906,6.819
			c-0.867,0.427-0.107,1.721,0.758,1.295c4.126-2.031,8.392-3.793,12.709-5.372c4.281-1.566,15.781-6.413,19.395-1.656
			C285.395,503.863,286.698,503.117,286.112,502.346L286.112,502.346z"/>
	</g>
</g>
<g>
	<g>
		<path fill="#1A1A1A" d="M157.983,578.06c-2.164-3.092-6.313-3.593-9.798-3.849c-6.649-0.489-13.475,0.621-20.009,1.737
			c-9.846,1.683-19.646,4.052-29.218,6.905c-0.925,0.276-0.531,1.724,0.398,1.447c7.938-2.367,16.02-4.313,24.136-5.954
			c6.468-1.308,13.017-2.351,19.614-2.664c3.985-0.189,10.945-0.632,13.582,3.135C157.238,579.604,158.54,578.854,157.983,578.06
			L157.983,578.06z"/>
	</g>
</g>
<g>
	<g>
		<path fill="#1A1A1A" d="M188.43,583.021c-0.306,1.493-10.607,2.707-11.931,2.953c-7.352,1.366-14.754,2.467-22.153,3.542
			c-10.469,1.521-20.957,2.924-31.457,4.213c-0.947,0.116-0.958,1.617,0,1.5c11.62-1.427,23.225-2.993,34.807-4.698
			c7.659-1.128,15.321-2.303,22.913-3.825c1.662-0.333,8.786-0.932,9.268-3.286C190.069,582.475,188.624,582.073,188.43,583.021
			L188.43,583.021z"/>
	</g>
</g>
<g>
	<g>
		<path fill="#1A1A1A" d="M299.719,587.292c-22.445-4.453-47.627,4.513-66.788,16.061c-0.827,0.498-0.073,1.796,0.758,1.295
			c18.777-11.316,43.629-20.274,65.632-15.908C300.265,588.926,300.667,587.48,299.719,587.292L299.719,587.292z"/>
	</g>
</g>
<path fill="#333353" d="M97.782,611.957L85.729,848.64l19.108,165.325l52.498,3.358l3.617-126.708c0,0-5.097-26.416,1.147-46.173
	c4.984-15.779,36.698-145.185,36.698-145.185s3.139,119.63,16.256,147.592c4.517,9.639-2.477,17.317,0,42.803
	c4.887,50.371,8.807,127.671,8.807,127.671h49.095l6.295-130.189c0,0-3.425-19.466,0-33.987
	c3.146-13.324,22.788-241.189,22.788-241.189H97.782z"/>
<g id="XMLID_8_">
	<g>
		<path fill="#4A6FBF" d="M20.612,1045.149l0.315,6.082c9.106,12.092,27.425,12.146,28.148,13.133
			c0.343,0.464,24.697-0.697,50.29-2.051l-33.359-7.272l-14.695,2.315c0,0-0.497-1.738-1.366-2.914
			c-0.509-0.673-1.146-1.162-1.883-1.002c-1.978,0.442-26.676-8.025-27.429-8.285L20.612,1045.149z"/>
		<path fill="#241F23" d="M52.626,1052.126l-31.994-6.971c0.753,0.26,25.451,8.728,27.429,8.285c0.738-0.16,1.374,0.329,1.883,1.002
			l0.513-0.44C50.458,1054.002,51.339,1053.203,52.626,1052.126z"/>
		<path fill="#352F35" d="M27.678,1025.999c-2.602,4.246,20.539,10.82,20.539,10.82l4.095-3.59l-22.369-8.69
			c-0.08,0.031-0.16,0.056-0.233,0.086C28.953,1025.071,28.271,1025.541,27.678,1025.999z"/>
		<path fill="#110D11" d="M27.678,1025.999c0.593-0.458,1.274-0.928,2.032-1.374C28.632,1025.041,27.978,1025.502,27.678,1025.999z"
			/>
		<path fill="#352F35" d="M48.217,1036.819l7.039,5.056c0,0,4.449-1.602,9.351-3.87l-5.179-2.011L48.217,1036.819z"/>
		<polygon fill="#352F35" points="48.217,1036.819 59.428,1035.994 52.312,1033.229 		"/>
		<path fill="#241F23" d="M50.458,1054.002l9.936-0.183l-7.767-1.693C51.339,1053.203,50.458,1054.002,50.458,1054.002z"/>
		<path fill="#FFFFFF" d="M49.944,1054.442c0.869,1.176,1.366,2.914,1.366,2.914l14.695-2.315l-5.612-1.222l-9.936,0.183
			L49.944,1054.442z"/>
		<path fill="#1C151C" d="M52.626,1052.126l7.767,1.693l15.147-0.276c0,0-11.254-7.727-14.602-6.875
			C58.769,1047.229,55,1050.144,52.626,1052.126z"/>
		<polygon fill="#110D11" points="51.645,1024.554 51.749,1026.569 53.333,1026.501 53.22,1024.451 		"/>
		<path fill="#40393F" d="M52.312,1033.229l7.117,2.765l11.313-0.831l1.466-0.109c0,0-3.908-6.561-6.271-6.459
			c-2.374,0.137-9.285,0.834-9.285,0.834L52.312,1033.229z"/>
		<polygon fill="#110D11" points="55.622,1022.76 55.732,1024.769 57.98,1024.673 57.874,1022.63 		"/>
		<polygon fill="#110D11" points="56.451,1025.661 56.543,1027.454 59.033,1027.325 58.934,1025.532 		"/>
		<path fill="#2E2B2C" d="M44.853,1022.179c-6.621-1.306-11.708,0.41-15.143,2.446c0.073-0.03,0.153-0.055,0.233-0.086l22.369,8.69
			l4.341-3.801c0,0,6.911-0.697,9.285-0.834l-10.486,0.558l-8-3.825l0.874-2.766l6.173-1.833l7.149-2.752l-0.055-0.675
			C55.75,1018.696,44.853,1022.179,44.853,1022.179z"/>
		<polygon fill="#FFFFFF" points="60.393,1053.819 66.005,1055.041 75.54,1053.543 		"/>
		<path fill="#40393F" d="M63.11,1023.261l1.577-0.062l0.1,1.799l-1.584,0.068L63.11,1023.261z M60.048,1020.726l1.576-0.095
			l0.083,1.59l-1.577,0.075L60.048,1020.726z M57.98,1024.673l-2.248,0.096l-0.111-2.009l2.252-0.13L57.98,1024.673z
			 M56.543,1027.454l-0.093-1.793l2.483-0.129l0.1,1.793L56.543,1027.454z M47.452,1025.327l8,3.825l10.486-0.558l1.332-7.022
			l-5.62-3.596l-7.149,2.752l-6.173,1.833L47.452,1025.327z M51.749,1026.569l-0.104-2.016l1.575-0.103l0.113,2.05L51.749,1026.569z
			"/>
		<polygon fill="#110D11" points="60.048,1020.726 60.129,1022.296 61.706,1022.221 61.624,1020.631 		"/>
		<polygon fill="#110D11" points="63.11,1023.261 63.203,1025.066 64.787,1024.998 64.687,1023.199 		"/>
		<path fill="#171319" d="M64.607,1038.005l32.386,12.587c0.195-0.044,0.396-0.088,0.604-0.133
			c-3.934-3.127-19.987-15.489-26.841-15.134c-0.595,0.031-1.125,0.153-1.567,0.394C67.698,1036.521,66.13,1037.295,64.607,1038.005
			z"/>
		<path fill="#FFFFFF" d="M66.005,1055.041l33.359,7.272c0.007,0,0.014-0.001,0.02-0.001c-0.052-0.099-0.637-1.161-1.617-2.671
			c-0.766-1.174-1.771-2.614-2.953-4.1c-0.987-1.245-2.111-2.516-3.318-3.675l-0.439,0.03c0,0,0.134-0.027,0.382-0.081
			c-4.582-4.362-10.455-7.083-15.684-0.659l-0.216,2.386L66.005,1055.041z"/>
		<path fill="#352F35" d="M70.741,1035.163l-11.313,0.831l5.179,2.011c1.523-0.71,3.091-1.483,4.583-2.286
			c0.442-0.24,0.972-0.362,1.567-0.394L70.741,1035.163z"/>
		<path fill="#0A0608" d="M70.652,1011.595l0.613,8.686l0.223,0.382l1.95-1.126l-0.626-8.671l-0.174-0.351
			C71.884,1010.887,71.231,1011.246,70.652,1011.595z"/>
		<path fill="#120B12" d="M70.652,1011.595c-5.057,3.091-3.835,5.313-5.724,5.141c-0.511-0.049-1.734,0.178-3.335,0.566l0.055,0.675
			l5.62,3.596l-1.332,7.022c2.362-0.102,6.271,6.459,6.271,6.459l-1.466,0.109l0.015,0.162c6.854-0.355,22.907,12.007,26.841,15.134
			c16.104-3.548,56.499-12.474,57.824-13.085c1.656-0.771,6.614,9.819,6.614,9.819l2.942-0.037
			c2.666-22.64-6.607-48.941-6.607-48.941l-3.523,21.552l-20.051,5.781c2.562,2.038,4.956,4.003,7.076,5.772
			c5.325,4.445-33.295,11.881-33.295,11.881l-12.125-22.029l-0.094,0.019l2.093,3.867l3.039,5.622c0,0-2.017,0.213-4.943,0.439
			c-2.135,0.165-4.765,0.342-7.446,0.447c-2.572,0.105-5.195,0.153-7.492,0.069c-3.649-0.123-6.474-0.573-6.956-1.62
			c-0.29-0.616-0.597-1.319-0.92-2.056c-0.977-2.222-2.021-4.712-2.557-6.007c-0.232-0.558-0.372-0.896-0.372-0.896l0.685-0.395
			l-0.223-0.382L70.652,1011.595z"/>
		<path fill="#070508" d="M78.357,1022.049l-0.913-2.687l-6.256,2.584l-0.013,0.007c0.535,1.295,1.58,3.785,2.557,6.007l0.472-0.059
			l5.9-0.692l-0.889-2.62L78.357,1022.049z"/>
		<path d="M72.638,1010.515l0.174,0.351l0.626,8.671l2.187-1.26l-0.052-0.092l-0.628-8.712
			C74.088,1009.829,73.326,1010.174,72.638,1010.515z"/>
		<path fill="#171319" d="M74.204,1027.901l-0.472,0.059c0.323,0.736,0.631,1.439,0.92,2.056c0.482,1.047,3.307,1.497,6.956,1.62
			l-1.505-4.427L74.204,1027.901z"/>
		<path fill="#171319" d="M73.438,1019.536l-1.95,1.126l-0.685,0.395c0,0,0.14,0.339,0.372,0.896l0.013-0.007l6.256-2.584
			l-0.608-1.786l-1.212,0.7L73.438,1019.536z"/>
		<path d="M74.945,1009.473l0.628,8.712l0.052,0.092l1.212-0.7l0.784-0.447l-0.075-0.132l-0.862-13.489
			c-1.226,2.255-1.626,4.216-0.623,5.527C75.676,1009.184,75.297,1009.332,74.945,1009.473z"/>
		<polygon fill="#070508" points="77.445,1019.362 78.357,1022.049 84.989,1020.159 83.748,1016.757 		"/>
		<path d="M76.684,1003.508l0.862,13.489l0.075,0.132l3.945-2.274l-0.447-0.776l-1.324-10.759l-0.42-3.396l-0.17-0.134
			C78.2,1001.075,77.329,1002.328,76.684,1003.508z"/>
		<polygon fill="#171319" points="78.357,1022.049 79.215,1024.589 86.104,1023.222 84.989,1020.159 		"/>
		<polygon fill="#171319" points="79.215,1024.589 80.104,1027.209 87.251,1026.371 86.104,1023.222 		"/>
		<path fill="#070508" d="M80.104,1027.209l1.505,4.427c2.297,0.084,4.92,0.036,7.492-0.069l-0.007-0.136l-1.843-5.06
			L80.104,1027.209z"/>
		<polygon fill="#070508" points="76.837,1017.576 77.445,1019.362 83.748,1016.757 89.393,1014.422 88.046,1011.338 
			87.957,1011.187 81.566,1014.854 77.621,1017.129 		"/>
		<polygon fill="#110D11" points="82.515,1000.561 82.631,1002.807 84.438,1002.713 84.314,1000.46 		"/>
		<polygon fill="#171319" points="83.748,1016.757 84.989,1020.159 91.125,1018.402 89.393,1014.422 		"/>
		<path fill="#0A0608" d="M96.993,1050.592l-32.386-12.587c-4.902,2.269-9.351,3.87-9.351,3.87l-7.039-5.056
			c0,0-23.141-6.574-20.539-10.82c-2.095,1.588-3.168,3.014-3.168,3.014c-3.15,3.487,0.359,13.21,0.359,13.21l-4.258,2.927
			l0.021,0.006l31.994,6.971c2.374-1.982,6.143-4.897,8.312-5.458c3.348-0.852,14.602,6.875,14.602,6.875l0.216-2.386
			c5.229-6.424,11.103-3.703,15.684,0.659C92.231,1051.64,94.203,1051.205,96.993,1050.592z"/>
		<polygon fill="#070508" points="91.125,1018.402 84.989,1020.159 86.104,1023.222 92.658,1021.925 		"/>
		<polygon fill="#070508" points="86.104,1023.222 87.251,1026.371 94.237,1025.554 92.658,1021.925 		"/>
		<path fill="#171319" d="M87.251,1026.371l1.843,5.06l0.007,0.136c2.681-0.105,5.311-0.282,7.446-0.447l-0.023-0.312l-2.287-5.254
			L87.251,1026.371z"/>
		<polygon fill="#110D11" points="87.051,996.472 87.191,999.171 89.444,999.062 89.311,996.361 		"/>
		<polygon fill="#171319" points="90.235,1009.874 87.957,1011.187 88.046,1011.338 89.393,1014.422 92.089,1013.306 		"/>
		<path fill="#110D11" d="M91.058,1051.897l0.439-0.03c-0.021-0.012-0.035-0.032-0.057-0.051
			C91.192,1051.87,91.058,1051.897,91.058,1051.897z"/>
		<polygon fill="#070508" points="89.393,1014.422 91.125,1018.402 94.354,1017.482 92.089,1013.306 		"/>
		<path fill="#FFFFFF" d="M159.447,1047.511l-67.95,4.356c1.207,1.159,2.331,2.43,3.318,3.675l0.15-0.116l40.438-4.966
			L159.447,1047.511z"/>
		<polygon fill="#110D11" points="90.235,1009.874 92.089,1013.306 92.116,1013.297 		"/>
		<path fill="#40393F" d="M92.116,1013.297l2.299,4.169l2.037,3.706l12.125,22.029c0,0,38.621-7.436,33.295-11.881
			c-2.12-1.77-4.515-3.734-7.076-5.772c-11.978-9.508-27.59-20.556-35.363-20.533l-5.048,2.195l-4.149,2.664L92.116,1013.297z
			 M112,1030.08l-5.279-9.576l1.99-1.263c3.141-1.445,15.41,9.627,15.41,9.627L112,1030.08z"/>
		<polygon fill="#171319" points="91.125,1018.402 92.658,1021.925 96.358,1021.19 94.354,1017.482 		"/>
		<polygon fill="#110D11" points="90.767,1002.846 90.907,1005.545 92.72,1005.451 92.573,1002.752 		"/>
		<polygon fill="#100D0E" points="81.119,1014.078 81.566,1014.854 87.957,1011.187 90.235,1009.874 94.385,1007.21 
			91.513,1008.465 80.058,1003.285 79.795,1003.319 		"/>
		<polygon fill="#110D11" points="92.089,1013.306 94.354,1017.482 94.415,1017.466 92.116,1013.297 		"/>
		<polygon fill="#171319" points="92.658,1021.925 94.237,1025.554 98.451,1025.058 96.358,1021.19 		"/>
		<polygon fill="#110D11" points="92.554,993.479 92.717,996.633 95.194,996.511 95.023,993.358 		"/>
		<path fill="#070508" d="M94.237,1025.554l2.287,5.254l0.023,0.312c2.926-0.227,4.943-0.439,4.943-0.439l-3.039-5.622
			L94.237,1025.554z"/>
		<polygon fill="#110D11" points="94.354,1017.482 96.358,1021.19 96.452,1021.172 94.415,1017.466 		"/>
		<path fill="#110D11" d="M94.385,1007.21l5.048-2.195c-0.868-0.002-1.648,0.14-2.304,0.438L94.385,1007.21z"/>
		<path fill="#110D11" d="M96.993,1050.592l1.488,0.574c0,0-0.318-0.255-0.884-0.707
			C97.389,1050.504,97.188,1050.548,96.993,1050.592z"/>
		<path fill="#FFFFFF" d="M98.226,1059.326l50.467-6.082l0.419-0.286l-13.689-2.344l-0.021-0.154l-40.438,4.966l-0.15,0.116
			c1.183,1.485,2.187,2.926,2.953,4.1L98.226,1059.326z"/>
		<path fill="#FFFFFF" d="M98.226,1059.326l-0.458,0.315c0.98,1.51,1.565,2.572,1.617,2.671c28.549-1.507,58.632-3.257,58.632-3.257
			l6.346-2.031l3.253-2.536l0.222-2.399l-2.196-0.884l-16.949,2.039l-3.837,2.654L98.226,1059.326z"/>
		<polygon fill="#110D11" points="95.128,999.689 95.291,1002.828 97.327,1002.729 97.163,999.563 		"/>
		<polygon fill="#2E2A32" points="98.226,1059.326 144.856,1055.898 148.693,1053.244 		"/>
		<path fill="#2B242A" d="M91.497,1051.867l67.95-4.356l2.588-0.317c0,0-4.958-10.591-6.614-9.819
			c-1.325,0.611-41.72,9.537-57.824,13.085c0.566,0.452,0.884,0.707,0.884,0.707l-1.488-0.574c-2.79,0.613-4.762,1.048-5.553,1.225
			C91.461,1051.835,91.476,1051.855,91.497,1051.867z"/>
		<path fill="#5319FF" d="M105.041,968.072c-10.472,11.281-9.809,16.232-9.809,16.232c1.739-0.612,3.579-0.572,5.422-0.084
			l0.426-0.68L105.041,968.072z"/>
		<path fill="#FFFFFF" d="M95.232,984.305l22.897,14.186c0,0-8.83-11.99-17.475-14.27C98.812,983.732,96.971,983.692,95.232,984.305
			z"/>
		<path fill="#FFFFFF" d="M97.163,999.563l0.164,3.166l-2.037,0.099l-0.163-3.139L97.163,999.563z M80.058,1003.285l11.455,5.18
			l2.872-1.255l2.745-1.757c0.656-0.299,1.436-0.44,2.304-0.438l0.046-0.022l-1.11-14.88l-5.524-1.742l-5.212,4.015l-7.109,6.807
			L80.058,1003.285z M82.631,1002.807l-0.116-2.246l1.799-0.101l0.124,2.253L82.631,1002.807z M87.191,999.171l-0.14-2.699
			l2.26-0.11l0.133,2.7L87.191,999.171z M90.907,1005.545l-0.14-2.699l1.807-0.094l0.146,2.699L90.907,1005.545z M92.717,996.633
			l-0.164-3.153l2.47-0.121l0.17,3.152L92.717,996.633z"/>
		<path fill="#191319" d="M95.232,984.305c0,0-10.306,8.214-16.028,15.484l0.17,0.134l0.42,3.396l0.263-0.034l0.466-4.094
			l7.109-6.807l5.212-4.015l5.524,1.742l1.11,14.88l-0.046,0.022c7.773-0.022,23.385,11.025,35.363,20.533l23.574-27.333
			l-0.351-6.766c0,0-1.508-11.678-16.544,3.558c-15.049,15.25-23.345,3.483-23.345,3.483L95.232,984.305z"/>
		<path fill="#1C181D" d="M101.081,983.541l-0.426,0.68c8.646,2.279,17.475,14.27,17.475,14.27l5.901-17.028
			c0,0-5.487-27.318-17.51-14.945c-0.277,0.285-0.541,0.563-0.805,0.835l5.255,4.145L101.081,983.541z"/>
		<path fill="#5319FF" d="M105.041,968.072l-3.96,15.469l9.89-12.045l-5.255-4.145C105.485,967.602,105.26,967.837,105.041,968.072z
			"/>
		<path fill="#19151A" d="M106.722,1020.504l5.279,9.576l12.121-1.212c0,0-12.269-11.072-15.41-9.627L106.722,1020.504z"/>
		<path fill="#110D11" d="M105.306,967.034l-0.265,1.038c0.219-0.235,0.444-0.471,0.675-0.721L105.306,967.034z"/>
		<path fill="#FFFFFF" d="M135.402,1050.46l0.021,0.154l13.689,2.344l16.529-1.753c4.396-2.493-0.665-4.049-0.665-4.049
			l-5.531,0.354L135.402,1050.46z"/>
		<polygon fill="#2B242A" points="158.37,998.215 134.796,1025.548 154.847,1019.767 		"/>
		<polygon fill="#110D11" points="149.113,1052.958 148.693,1053.244 165.642,1051.205 		"/>
		<polygon fill="#110D11" points="159.447,1047.511 164.978,1047.156 162.035,1047.193 		"/>
	</g>
	<g>
		<polyline fill="none" stroke="#000000" stroke-miterlimit="10" points="98.226,1059.326 148.693,1053.244 165.642,1051.205 		"/>
		
			<line fill="none" stroke="#000000" stroke-width="0.5" stroke-linecap="round" stroke-linejoin="round" x1="74.945" y1="1009.473" x2="74.941" y2="1009.398"/>
	</g>
</g>
<g id="XMLID_2_">
	<g>
		<polygon fill="#352F35" points="179.092,1049.099 190.025,1046.481 182.558,1044.903 		"/>
		<polygon fill="#171319" points="214.195,1017.411 214.308,1017.546 216.134,1020.38 218.616,1018.845 216.235,1015.756 		"/>
		<path fill="#0A0608" d="M197.184,1020.608l2,8.468l0.274,0.336l1.75-1.426l-2.01-8.451l-0.229-0.325
			C198.283,1019.698,197.691,1020.166,197.184,1020.608z"/>
		<polygon fill="#171319" points="218.484,1024.03 220.563,1027.261 224.097,1025.941 221.522,1022.604 		"/>
		<path fill="#FFFFFF" d="M199.58,1064.23l-5.75-0.308l-0.013,0.003l-9.75,1.771l-0.434,0.523c1.046,1.021,1.816,2.656,1.816,2.656
			L199.58,1064.23z"/>
		<path fill="#110D11" d="M219.902,1012.46l4.642-2.988c-0.864,0.139-1.61,0.404-2.217,0.807L219.902,1012.46z"/>
		<polygon fill="#2B242A" points="281.609,993.297 262.733,1024.057 281.597,1015.134 		"/>
		<polygon fill="#110D11" points="188.182,1031.313 188.517,1032.854 190.061,1032.527 189.724,1030.972 		"/>
		<path fill="#40393F" d="M182.558,1044.903l7.467,1.578l11.034-2.632l1.43-0.344c0,0-4.912-5.848-7.229-5.373
			c-2.321,0.516-9.028,2.321-9.028,2.321L182.558,1044.903z"/>
		<path fill="#FFFFFF" d="M267.338,1048.554l-39.114,11.401l-0.129,0.139c1.406,1.276,2.629,2.536,3.573,3.572l0.402-0.385
			l48.84-14.117l0.361-0.349l-13.889-0.118L267.338,1048.554z"/>
		<polygon fill="#171319" points="215.94,1032.518 214.303,1029.594 207.723,1032.051 209.028,1034.493 		"/>
		<path fill="#4A6FBF" d="M184.368,1076.153c0.413,0.403,24.264-4.657,49.306-10.107l-34.094-1.815l-14.132,4.646
			c0,0-0.77-1.635-1.816-2.656c-0.611-0.582-1.317-0.963-2.02-0.686c-1.881,0.754-27.619-3.634-28.404-3.77l-0.021-0.002
			l1.289,5.952C165.407,1078.187,183.496,1075.296,184.368,1076.153z"/>
		<path fill="#241F23" d="M184.065,1065.697l9.75-1.771l-7.917-0.421C184.8,1064.769,184.065,1065.697,184.065,1065.697z"/>
		<path fill="#352F35" d="M186.852,1052.956c0,0,4.133-2.295,8.601-5.32l-5.428-1.154l-10.933,2.617L186.852,1052.956z"/>
		<polygon fill="#FFFFFF" points="208.75,1061.219 193.829,1063.923 199.58,1064.23 		"/>
		<path fill="#2E2B2C" d="M186.231,1040.454c0,0,6.707-1.806,9.028-2.321l-10.26,2.235l-8.509-2.483l0.418-2.87l5.797-2.808
			l6.616-3.858l-0.165-0.665c-5.536,2.315-15.737,7.511-15.737,7.511c-6.772-0.225-11.528,2.303-14.584,4.863
			c0.08-0.045,0.161-0.09,0.248-0.137l23.475,4.982L186.231,1040.454z"/>
		<polygon fill="#110D11" points="218.616,1018.845 221.522,1022.604 221.579,1022.577 218.641,1018.832 		"/>
		<path fill="#070508" d="M218.602,1037.349l-0.028-0.133l-2.633-4.698l-6.912,1.976l2.188,4.121
			C213.498,1038.328,216.08,1037.866,218.602,1037.349z"/>
		<polygon fill="#110D11" points="215.628,1008.727 216.201,1011.376 217.976,1010.991 217.397,1008.351 		"/>
		<polygon fill="#110D11" points="280.91,1049.164 297.303,1044.423 281.271,1048.815 		"/>
		<path fill="#FFFFFF" d="M241.937,1000.036c0,0-10.642-10.415-19.534-11.276c-1.904-0.184-3.721,0.071-5.339,0.955
			L241.937,1000.036z"/>
		<polygon fill="#070508" points="218.484,1024.03 212.71,1026.75 214.303,1029.594 220.563,1027.261 		"/>
		<path fill="#1C181D" d="M241.937,1000.036l3.088-17.755c0,0-9.807-26.081-19.685-11.937c-0.228,0.326-0.443,0.644-0.66,0.954
			l5.852,3.238l-7.826,13.478l-0.303,0.745C231.295,989.621,241.937,1000.036,241.937,1000.036z"/>
		<path fill="#FFFFFF" d="M233.694,1066.042c-0.068-0.09-0.815-1.044-2.026-2.376c-0.944-1.036-2.167-2.296-3.573-3.572
			c-1.175-1.069-2.488-2.144-3.865-3.093l-0.429,0.1c0,0,0.128-0.049,0.364-0.142c-5.223-3.568-11.459-5.316-15.588,1.864
			l0.173,2.396l-9.17,3.012l34.094,1.815C233.681,1066.045,233.688,1066.043,233.694,1066.042z"/>
		<path fill="#2B242A" d="M293.1,1041.049c0,0-6.596-9.655-8.108-8.635c-1.209,0.816-39.63,16.122-54.961,22.215
			c0.551,0.304,0.885,0.501,0.964,0.547l-1.533-0.327c-2.66,1.062-4.543,1.809-5.296,2.11c0.024,0.016,0.04,0.026,0.064,0.042
			l66.471-15.252L293.1,1041.049z"/>
		<path fill="#19151A" d="M234.215,1023.598l6.748,8.597l11.769-3.144c0,0-13.888-8.95-16.755-7.02L234.215,1023.598z"/>
		<polygon fill="#110D11" points="184.141,1034.031 184.573,1035.996 186.777,1035.547 186.343,1033.54 		"/>
		<polygon fill="#070508" points="210.938,1023.592 205.136,1027.177 206.469,1029.682 212.71,1026.75 		"/>
		<path fill="#241F23" d="M181.611,1065.535c0.703-0.277,1.409,0.104,2.02,0.686l0.434-0.523c0,0,0.735-0.929,1.833-2.192
			l-32.691-1.739C153.992,1061.901,179.73,1066.289,181.611,1065.535z"/>
		<polygon fill="#110D11" points="207.116,1007.798 207.592,1009.996 209.361,1009.619 208.877,1007.416 		"/>
		<polygon fill="#171319" points="206.469,1029.682 207.723,1032.051 214.303,1029.594 212.71,1026.75 		"/>
		<path fill="#FFFFFF" d="M267.338,1048.554l23.362-6.805l-66.471,15.252c1.377,0.949,2.69,2.023,3.865,3.093l0.129-0.139
			L267.338,1048.554z"/>
		<path fill="#5319FF" d="M222.705,988.015l7.826-13.478l-5.852-3.238c-0.188,0.283-0.373,0.552-0.551,0.818L222.705,988.015z"/>
		<path fill="#40393F" d="M221.579,1022.577l2.607,3.331l15.506,19.787c0,0,36.924-13.547,30.955-17.072
			c-2.377-1.405-5.057-2.96-7.919-4.559c-13.344-7.46-30.514-15.852-38.185-14.593l-4.642,2.988l-3.667,3.296l2.405,3.076
			L221.579,1022.577z M240.963,1032.194l-6.748-8.597l1.762-1.566c2.867-1.931,16.755,7.02,16.755,7.02L240.963,1032.194z"/>
		<path d="M203.163,1026.391l-0.066-0.082l-2.02-8.497c-0.789,0.489-1.485,0.952-2.109,1.398l0.229,0.325l2.01,8.451
			L203.163,1026.391z"/>
		<path fill="#40393F" d="M188.182,1031.313l1.542-0.341l0.337,1.556l-1.544,0.327L188.182,1031.313z M186.777,1035.547
			l-2.204,0.449l-0.433-1.965l2.202-0.491L186.777,1035.547z M185.805,1038.516l-0.38-1.754l2.431-0.52l0.385,1.746
			L185.805,1038.516z M180.503,1036.44l1.539-0.354l0.441,2.005l-1.552,0.322L180.503,1036.44z M185,1040.368l10.26-2.235
			l0.186-7.146l-6.124-2.639l-6.616,3.858l-5.797,2.808l-0.418,2.87L185,1040.368z M191.613,1033.328l1.547-0.314l0.388,1.76
			l-1.552,0.322L191.613,1033.328z"/>
		<polygon fill="#110D11" points="191.613,1033.328 191.996,1035.096 193.548,1034.773 193.16,1033.014 		"/>
		<path fill="#1C151C" d="M193.829,1063.923l14.921-2.704c0,0-12.352-5.823-15.518-4.438c-2.057,0.903-5.308,4.394-7.333,6.725
			l7.917,0.421L193.829,1063.923z"/>
		<polygon fill="#100D0E" points="208.479,1022.065 214.195,1017.411 216.235,1015.756 219.902,1012.46 217.268,1014.153 
			205.13,1010.889 204.876,1010.965 207.913,1021.37 		"/>
		<path fill="#070508" d="M230.687,1034.482l-3.911-5.066l-4.072,1.166l3.104,4.825l0.072,0.303
			C228.736,1035.016,230.687,1034.482,230.687,1034.482z"/>
		<path fill="#110D11" d="M230.023,1054.63c-0.191,0.076-0.376,0.151-0.563,0.219l1.533,0.327c-0.079-0.046-0.413-0.243-0.964-0.547
			C230.029,1054.622,230.023,1054.63,230.023,1054.63z"/>
		<path fill="#110D11" d="M157.091,1041.704c0.502-0.531,1.082-1.087,1.744-1.646
			C157.872,1040.634,157.317,1041.177,157.091,1041.704z"/>
		<path fill="#171319" d="M199.376,1030.732l5.76-3.556l-0.889-1.672l-1.084,0.886l-1.956,1.596l-1.75,1.426l-0.606,0.498
			c0,0,0.192,0.312,0.513,0.832L199.376,1030.732z"/>
		<polygon fill="#110D11" points="180.503,1036.44 180.931,1038.414 182.483,1038.092 182.042,1036.087 		"/>
		<polygon fill="#2E2A32" points="232.07,1063.281 277.541,1052.396 280.91,1049.164 		"/>
		<path fill="#0A0608" d="M224.165,1056.959c0.753-0.302,2.636-1.049,5.296-2.11l-34.008-7.213c-4.467,3.025-8.601,5.32-8.601,5.32
			l-7.76-3.857c0,0-23.947-2.779-22.006-7.387c-1.813,1.903-2.647,3.491-2.647,3.491c-2.548,3.948,2.478,12.98,2.478,12.98
			l-3.73,3.58l0.021,0.002l32.691,1.739c2.025-2.331,5.276-5.821,7.333-6.725c3.166-1.385,15.518,4.438,15.518,4.438l-0.173-2.396
			C212.706,1051.643,218.942,1053.391,224.165,1056.959z"/>
		<path fill="#352F35" d="M195.453,1047.636c1.398-0.94,2.821-1.956,4.162-2.995c0.398-0.308,0.894-0.513,1.477-0.639l-0.033-0.152
			l-11.034,2.632L195.453,1047.636z"/>
		<polygon fill="#110D11" points="216.235,1015.756 218.616,1018.845 218.641,1018.832 		"/>
		<polygon fill="#110D11" points="216.556,1002.288 218.98,1001.77 218.306,998.686 215.888,999.202 		"/>
		<polygon fill="#070508" points="214.303,1029.594 215.94,1032.518 222.703,1030.582 220.563,1027.261 		"/>
		<polygon fill="#171319" points="220.563,1027.261 222.703,1030.582 226.775,1029.416 224.097,1025.941 		"/>
		<path fill="#352F35" d="M179.092,1049.099l3.465-4.195l-23.475-4.982c-0.087,0.047-0.167,0.092-0.248,0.137
			c-0.662,0.56-1.242,1.115-1.744,1.646c0,0-0.006,0.001-0.005,0.008C155.145,1046.319,179.092,1049.099,179.092,1049.099z"/>
		<polygon fill="#110D11" points="221.522,1022.604 224.097,1025.941 224.187,1025.908 221.579,1022.577 		"/>
		<path fill="#171319" d="M225.879,1035.71l-0.072-0.303l-3.104-4.825l-6.763,1.936l2.633,4.698l0.028,0.133
			C221.231,1036.813,223.798,1036.216,225.879,1035.71z"/>
		<path fill="#FFFFFF" d="M207.592,1009.996l-0.476-2.198l1.761-0.382l0.484,2.203L207.592,1009.996z M211.51,1005.682l-0.572-2.642
			l2.213-0.473l0.565,2.644L211.51,1005.682z M221.415,1004.466l0.671,3.099l-1.996,0.418l-0.663-3.065L221.415,1004.466z
			 M215.888,999.202l2.418-0.517l0.675,3.084l-2.425,0.519L215.888,999.202z M222.327,1010.278c0.606-0.402,1.353-0.668,2.217-0.807
			l0.03-0.02l-3.488-14.509l-5.731-0.831l-4.499,4.8l-5.923,7.861l0.197,4.115l12.138,3.265l2.635-1.693L222.327,1010.278z
			 M216.201,1011.376l-0.573-2.649l1.77-0.376l0.578,2.641L216.201,1011.376z"/>
		<path fill="#110D11" d="M224.68,971.299l-0.456-0.248l-0.095,1.066C224.307,971.851,224.491,971.582,224.68,971.299z"/>
		<polygon fill="#110D11" points="211.51,1005.682 213.716,1005.211 213.15,1002.567 210.938,1003.04 		"/>
		<polygon fill="#110D11" points="290.7,1041.749 295.996,1040.533 293.1,1041.049 		"/>
		<polygon fill="#110D11" points="219.427,1004.917 220.09,1007.982 222.086,1007.564 221.415,1004.466 		"/>
		<path fill="#FFFFFF" d="M297.303,1044.423c3.938-3.168-1.307-3.89-1.307-3.89l-5.296,1.216l-23.362,6.805l0.045,0.144
			l13.889,0.118L297.303,1044.423z"/>
		<path fill="#191319" d="M280.175,986.669c0,0-3.365-11.283-15.756,6.178c-12.402,17.47-22.482,7.189-22.482,7.189l-24.873-10.321
			l-0.007,0.001c0,0-8.852,9.764-13.323,17.857l0.183,0.106l0.96,3.285l0.254-0.076l-0.197-4.115l5.923-7.861l4.499-4.8l5.731,0.831
			l3.488,14.509l-0.03,0.02c7.671-1.259,24.841,7.133,38.185,14.593l0.005-0.008l18.876-30.76L280.175,986.669z"/>
		<polygon fill="#070508" points="216.134,1020.38 218.484,1024.03 221.522,1022.604 218.616,1018.845 		"/>
		<path fill="#171319" d="M204.091,1038.134c0.644,0.955,3.504,0.946,7.126,0.48l-2.188-4.121l-5.719,1.633l-0.458,0.127
			C203.289,1036.928,203.713,1037.57,204.091,1038.134z"/>
		<path d="M201.837,1011.65l3.017,13.169l0.096,0.118l3.53-2.872l-0.566-0.695l-3.037-10.405l-0.96-3.285l-0.183-0.106l-0.007,0.002
			C202.941,1009.006,202.283,1010.383,201.837,1011.65z"/>
		<path fill="#070508" d="M206.469,1029.682l-1.333-2.505l-5.76,3.556l-0.012,0.01c0.743,1.19,2.176,3.486,3.487,5.511l0.458-0.127
			l5.719-1.633l-1.306-2.442L206.469,1029.682z"/>
		<path fill="#120B12" d="M295.996,1040.533c-1.006-22.768-14.387-47.236-14.387-47.236l-0.013,21.837l-18.863,8.923l-0.005,0.008
			c2.862,1.599,5.542,3.153,7.919,4.559c5.969,3.525-30.955,17.072-30.955,17.072l-15.506-19.787l-0.09,0.033l2.679,3.475
			l3.911,5.066c0,0-1.95,0.533-4.808,1.228c-2.081,0.506-4.647,1.104-7.277,1.639c-2.521,0.518-5.104,0.979-7.385,1.266
			c-3.622,0.466-6.482,0.475-7.126-0.48c-0.378-0.563-0.802-1.206-1.239-1.881c-1.312-2.024-2.744-4.32-3.487-5.511
			c-0.32-0.521-0.513-0.832-0.513-0.832l0.606-0.498l-0.274-0.336l-2-8.468c-4.495,3.857-2.933,5.854-4.826,5.98
			c-0.512,0.034-1.682,0.461-3.201,1.095l0.165,0.665l6.124,2.639l-0.186,7.146c2.316-0.475,7.229,5.373,7.229,5.373l-1.43,0.344
			l0.033,0.152c6.707-1.452,24.547,8.174,28.932,10.628c0,0,0.006-0.008,0.007-0.001c15.331-6.093,53.752-21.398,54.961-22.215
			c1.513-1.021,8.108,8.635,8.108,8.635L295.996,1040.533z"/>
		<path fill="#5319FF" d="M217.063,989.715c1.618-0.884,3.435-1.139,5.339-0.955l0.303-0.745l1.424-15.897
			c-8.524,12.812-7.072,17.599-7.072,17.599L217.063,989.715z"/>
		<path d="M201.077,1017.812l2.02,8.497l0.066,0.082l1.084-0.886l0.702-0.567l-0.096-0.118l-3.017-13.169
			c-0.85,2.416-0.93,4.416,0.272,5.549C201.752,1017.408,201.408,1017.614,201.077,1017.812z"/>
		<polygon fill="#070508" points="205.136,1027.177 210.938,1023.592 216.134,1020.38 214.308,1017.546 214.195,1017.411 
			208.479,1022.065 204.949,1024.938 204.247,1025.505 		"/>
		<path fill="#110D11" d="M224.165,1056.959c-0.236,0.093-0.364,0.142-0.364,0.142l0.429-0.1
			C224.205,1056.985,224.189,1056.975,224.165,1056.959z"/>
		<polygon fill="#110D11" points="185.425,1036.762 185.805,1038.516 188.242,1037.988 187.856,1036.242 		"/>
		<path fill="#171319" d="M195.453,1047.636l34.008,7.213c0.187-0.067,0.371-0.143,0.563-0.219
			c-4.385-2.454-22.225-12.08-28.932-10.628c-0.583,0.126-1.079,0.331-1.477,0.639
			C198.273,1045.68,196.851,1046.695,195.453,1047.636z"/>
		<polygon fill="#171319" points="210.938,1023.592 212.71,1026.75 218.484,1024.03 216.134,1020.38 		"/>
		<path fill="#FFFFFF" d="M296.976,1050.371l2.804-3.025l-0.165-2.397l-2.312-0.525l-16.393,4.741l-3.369,3.232l-45.471,10.885
			l-0.402,0.385c1.211,1.332,1.958,2.286,2.026,2.376c27.934-6.083,57.345-12.646,57.345-12.646L296.976,1050.371z"/>
	</g>
	<g>
		<polyline fill="none" stroke="#000000" stroke-miterlimit="10" points="232.07,1063.281 280.91,1049.164 297.303,1044.423 		"/>
		
			<line fill="none" stroke="#000000" stroke-width="0.5" stroke-linecap="round" stroke-linejoin="round" x1="201.077" y1="1017.812" x2="201.063" y2="1017.745"/>
	</g>
</g>
<g>
	<g>
		<path fill="#555575" d="M198.075,697.793c-0.525,2.503-12.994,2.514-14.981,2.658c-3.922,0.285-7.857,0.469-11.789,0.564
			c-0.966,0.023-0.968,1.523,0,1.5c5.241-0.127,10.483-0.415,15.705-0.881c2.405-0.214,11.813-0.111,12.512-3.443
			C199.719,697.248,198.273,696.847,198.075,697.793L198.075,697.793z"/>
	</g>
</g>
<g>
	<g>
		<path fill="#555575" d="M161.114,672.189c0.466,18.027,22.813,24.986,37.685,26.553c0.961,0.102,0.952-1.399,0-1.5
			c-14.038-1.479-35.744-8.019-36.185-25.053C162.589,671.224,161.089,671.222,161.114,672.189L161.114,672.189z"/>
	</g>
</g>
<g>
	<g>
		<path fill="#555575" d="M198.048,697.992c0.185,4.469,2.746,9.188,4.598,13.191c0.406,0.877,1.698,0.114,1.295-0.758
			c-1.726-3.729-4.221-8.261-4.393-12.434C199.509,697.028,198.008,697.024,198.048,697.992L198.048,697.992z"/>
	</g>
</g>
<g>
	<g>
		<path fill="#555575" d="M157.128,855.262c-0.224,1.058-24.819-8.863-27.148-9.899c-0.875-0.39-1.639,0.902-0.757,1.295
			c3.33,1.48,28.478,13.139,29.352,9.003C158.774,854.717,157.329,854.315,157.128,855.262L157.128,855.262z"/>
	</g>
</g>
<g>
	<g>
		<path fill="#555575" d="M157.128,858.532c-0.473,2.277-11.583,1.846-13.371,1.893c-3.418,0.089-6.845,0.078-10.263-0.018
			c-0.968-0.027-0.965,1.473,0,1.5c4.696,0.131,9.402,0.098,14.094-0.12c2.153-0.1,10.337,0.269,10.986-2.856
			C158.771,857.987,157.325,857.585,157.128,858.532L157.128,858.532z"/>
	</g>
</g>
<g>
	<g>
		<path fill="#555575" d="M157.473,861.939c-4.449,2.7-9.945,4.519-15.225,3.874c-0.958-0.117-0.947,1.384,0,1.5
			c5.523,0.675,11.328-1.254,15.982-4.079C159.056,862.733,158.302,861.436,157.473,861.939L157.473,861.939z"/>
	</g>
</g>
<g>
	<g>
		<path fill="#555575" d="M118.987,759.429c-0.224,1.057-24.818-8.862-27.148-9.898c-0.875-0.39-1.639,0.902-0.757,1.295
			c3.33,1.48,28.477,13.137,29.352,9.002C120.633,758.884,119.188,758.482,118.987,759.429L118.987,759.429z"/>
	</g>
</g>
<g>
	<g>
		<path fill="#555575" d="M244.624,855.262c-0.238,1.125-25.947-8.791-28.565-9.899c-0.88-0.373-1.646,0.919-0.758,1.295
			c3.357,1.422,29.883,13.187,30.771,9.003C246.271,854.717,244.825,854.315,244.624,855.262L244.624,855.262z"/>
	</g>
</g>
<g>
	<g>
		<path fill="#555575" d="M276.172,859.779c-0.26,1.251-6.003,1.692-6.938,1.835c-3.957,0.605-7.961,0.944-11.949,1.273
			c-5.224,0.431-10.46,0.755-15.696,0.981c-0.964,0.042-0.968,1.542,0,1.5c6.545-0.283,13.088-0.721,19.611-1.323
			c2.659-0.245,15.652-0.183,16.42-3.868C277.815,859.234,276.369,858.832,276.172,859.779L276.172,859.779z"/>
	</g>
</g>
<g>
	<g>
		<path fill="#555575" d="M269.61,850.261c-5.718,0.774-11.831,0.167-17.583-0.026c-0.968-0.032-0.965,1.468,0,1.5
			c5.901,0.198,12.115,0.768,17.981-0.026C270.964,851.578,270.556,850.133,269.61,850.261L269.61,850.261z"/>
	</g>
</g>
<g>
	<g>
		<path fill="#555575" d="M236.505,875.143c-4.597,0.123-9.454-1.253-13.923-2.243c-0.942-0.208-1.343,1.237-0.398,1.447
			c4.596,1.018,9.587,2.422,14.321,2.296C237.471,876.617,237.473,875.117,236.505,875.143L236.505,875.143z"/>
	</g>
</g>
<g>
	<g>
		<path fill="#555575" d="M270.863,875.371c-7.446,5.826-18.923,9.652-27.189,2.952c-0.744-0.604-1.813,0.451-1.061,1.061
			c8.989,7.286,21.141,3.439,29.311-2.952C272.686,875.836,271.615,874.782,270.863,875.371L270.863,875.371z"/>
	</g>
</g>
<g>
	<g>
		<path fill="#555575" d="M287.284,728.519c-0.267,1.297-5.423,1.917-6.408,2.121c-3.935,0.816-7.935,1.35-11.918,1.864
			c-4.714,0.609-9.444,1.124-14.179,1.548c-0.955,0.086-0.964,1.586,0,1.5c6.107-0.547,12.205-1.249,18.278-2.099
			c2.666-0.373,14.908-0.814,15.674-4.536C288.925,727.973,287.479,727.571,287.284,728.519L287.284,728.519z"/>
	</g>
</g>
<g>
	<g>
		<path fill="#555575" d="M230.029,751.716c-4.007,1.498-10.358-0.143-14.46-0.58c-4.473-0.478-8.938-1.045-13.392-1.682
			c-0.945-0.135-1.353,1.311-0.398,1.447c4.243,0.605,8.498,1.139,12.757,1.621c4.536,0.513,11.443,2.304,15.892,0.641
			C231.325,752.827,230.938,751.377,230.029,751.716L230.029,751.716z"/>
	</g>
</g>
<g>
	<g>
		<path fill="#555575" d="M136.91,611.758c-2.846,19.302-24.887,17.795-39.083,12.613c-0.911-0.332-1.3,1.118-0.398,1.447
			c14.993,5.472,37.958,6.483,40.928-13.662C138.496,611.211,137.051,610.804,136.91,611.758L136.91,611.758z"/>
	</g>
</g>
<g>
	<g>
		<path fill="#555575" d="M258.32,613.417c2.967,20.146,25.933,19.129,40.922,13.656c0.901-0.329,0.512-1.779-0.398-1.447
			c-14.193,5.183-36.234,6.694-39.076-12.607C259.627,612.064,258.182,612.472,258.32,613.417L258.32,613.417z"/>
	</g>
</g>
</svg>
